<?xml version="1.0" encoding="UTF-8"?> <svg xmlns="http://www.w3.org/2000/svg" viewBox="0 0 385.66 248.54"><defs><style>.cls-1,.cls-3,.cls-9{fill:#10275b;}.cls-1{opacity:0.1;}.cls-1,.cls-9{isolation:isolate;}.cls-2{fill:#fa5767;}.cls-4{fill:#dadada;}.cls-5{fill:#fff;}.cls-6{fill:#3b9dff;}.cls-7{fill:#1a1a1a;}.cls-8{fill:#d2d6e0;}.cls-9{opacity:0.2;}.cls-10{fill:#f6f6f6;}</style></defs><title>Asset 4</title><g id="Layer_2" data-name="Layer 2"><g id="Layer_1-2" data-name="Layer 1"><g id="people"><ellipse class="cls-1" cx="192.83" cy="238.51" rx="192.83" ry="10.03"></ellipse><path class="cls-2" d="M80.57,146.57l-.79.39c-8.24,3.93-12.62,3.28-20.64-.43-7.39-3.41-14.56-7.43-20.69-12.87-7.76-6.85-13.77-16.11-15-26.38-.28-2.3-.27-4.83,1.1-6.7,1.88-2.58,5.73-3,8.71-1.81s5.31,3.47,7.68,5.6a8.66,8.66,0,0,0,3.38,2.17,3.16,3.16,0,0,0,3.58-1.19c1.07-1.88-.77-4-2.42-5.44C41.61,96.7,38,94.85,34,92c-5.07-3.57-9.77-7.91-12.55-13.48S18,66.12,20.9,60.64a10.85,10.85,0,0,1,3.69-4.23c2.82-1.79,6.45-1.7,9.72-1s6.43,2,9.76,2.29c7.86.82,11-4.71,10.79-12-.1-4.85-1.67-9.57-2-14.41-.49-8.53,3.72-17.63,11.44-21.27S82.87,9.92,85.64,18c3,8.79-3.85,18.66.7,27.05a25.68,25.68,0,0,0,7.45,8.13c4.3,2.66,10.52-.48,15.51-.24a4.52,4.52,0,0,1,3.11,1,4.35,4.35,0,0,1,1,2.24,18.58,18.58,0,0,1-5.64,16.92c-5.2,4.74-14.21,7.15-16.42,14.56-1.41,4.6-.78,16.07,6.54,14.9,2.75-.43,4.59-3.15,7.22-4,3.26-1.1,7,1.06,8.46,4.18s1,6.83-.24,10c-2,5-5.87,9.1-9.64,13C95.91,133.84,90.81,141.52,80.57,146.57Z"></path><rect class="cls-3" x="68.39" y="39.63" width="2.58" height="196.47"></rect><polygon class="cls-3" points="69.68 93.16 48.03 71.52 49.86 69.69 69.68 89.51 89.5 69.69 91.32 71.52 69.68 93.16"></polygon><polygon class="cls-3" points="69.68 134.8 48.03 113.16 49.86 111.33 69.68 131.15 89.5 111.33 91.32 113.16 69.68 134.8"></polygon><polygon class="cls-4" points="350.56 239.16 114.08 239.16 114.08 131.67 232.32 13.43 350.56 131.67 350.56 239.16"></polygon><rect class="cls-5" x="146.33" y="158.55" width="43" height="53.75"></rect><rect class="cls-6" x="150.36" y="162.58" width="34.93" height="45.68"></rect><polygon class="cls-7" points="185.29 162.58 150.36 162.58 150.36 202.89 185.29 167.95 185.29 162.58"></polygon><rect class="cls-5" x="166.48" y="161.23" width="2.69" height="48.37"></rect><rect class="cls-5" x="149.02" y="176.68" width="37.62" height="1.34"></rect><rect class="cls-5" x="149.02" y="192.81" width="37.62" height="1.34"></rect><rect class="cls-5" x="275.32" y="158.55" width="43" height="53.75"></rect><rect class="cls-6" x="279.35" y="162.58" width="34.93" height="45.68"></rect><polygon class="cls-7" points="314.28 162.58 279.35 162.58 279.35 202.89 314.28 167.95 314.28 162.58"></polygon><rect class="cls-5" x="295.47" y="161.23" width="2.69" height="48.37"></rect><rect class="cls-5" x="278.01" y="176.68" width="37.62" height="1.34"></rect><rect class="cls-5" x="278.01" y="192.81" width="37.62" height="1.34"></rect><rect class="cls-5" x="210.82" y="153.17" width="40.31" height="75.24"></rect><rect class="cls-6" x="216.2" y="158.55" width="29.56" height="64.49"></rect><polygon class="cls-7" points="245.76 158.54 216.2 158.54 216.2 205.57 245.76 176.01 245.76 158.54"></polygon><rect class="cls-5" x="229.63" y="155.86" width="2.69" height="69.87"></rect><rect class="cls-5" x="213.51" y="168.62" width="34.93" height="1.34"></rect><rect class="cls-5" x="213.51" y="182.73" width="34.93" height="1.34"></rect><rect class="cls-5" x="213.51" y="196.84" width="34.93" height="1.34"></rect><rect class="cls-5" x="213.51" y="210.95" width="34.93" height="1.34"></rect><rect class="cls-8" x="247.1" y="186.76" width="2.69" height="8.06"></rect><polygon class="cls-9" points="339.81 145.11 124.83 145.11 135.58 182.73 350.56 182.73 339.81 145.11"></polygon><polygon class="cls-9" points="235.01 26.87 124.83 137.05 124.83 145.11 114.08 145.11 114.08 131.67 232.32 13.43 350.56 131.67 350.56 139.73 235.01 26.87"></polygon><rect class="cls-5" x="208.14" y="56.43" width="48.37" height="53.75"></rect><rect class="cls-6" x="212.17" y="60.46" width="40.31" height="45.68"></rect><polygon class="cls-7" points="252.48 60.46 212.17 60.46 212.17 103.46 252.48 63.15 252.48 60.46"></polygon><rect class="cls-5" x="230.98" y="59.12" width="2.69" height="48.37"></rect><rect class="cls-5" x="210.82" y="74.57" width="43" height="1.34"></rect><rect class="cls-5" x="210.82" y="90.69" width="43" height="1.34"></rect><polygon class="cls-10" points="232.32 13.43 119.46 126.3 119.46 134.36 103.33 134.36 232.32 5.37 361.31 134.36 345.19 134.36 345.19 126.3 232.32 13.43"></polygon><polygon class="cls-3" points="232.32 0 95.27 137.05 100.65 137.05 232.32 5.37 364 137.05 369.37 137.05 232.32 0"></polygon><rect class="cls-10" x="124.83" y="139.73" width="214.98" height="5.37"></rect><polygon class="cls-3" points="124.83 139.73 178.58 120.92 286.07 120.92 339.81 139.73 124.83 139.73"></polygon><rect class="cls-5" x="127.52" y="228.41" width="209.61" height="10.75"></rect><rect class="cls-5" x="208.14" y="228.41" width="45.68" height="5.37"></rect><rect class="cls-5" x="208.14" y="233.79" width="45.68" height="5.37"></rect><rect class="cls-10" x="130.21" y="145.11" width="5.37" height="83.31"></rect><rect class="cls-9" x="130.21" y="145.11" width="5.37" height="10.75"></rect><rect class="cls-10" x="200.07" y="145.11" width="5.37" height="83.31"></rect><rect class="cls-9" x="200.07" y="145.11" width="5.37" height="10.75"></rect><rect class="cls-10" x="132.89" y="223.04" width="69.87" height="2.69"></rect><rect class="cls-10" x="132.89" y="196.17" width="69.87" height="2.69"></rect><rect class="cls-10" x="140.28" y="197.51" width="1.34" height="26.87"></rect><rect class="cls-10" x="145.66" y="197.51" width="1.34" height="26.87"></rect><rect class="cls-10" x="151.03" y="197.51" width="1.34" height="26.87"></rect><rect class="cls-10" x="156.41" y="197.51" width="1.34" height="26.87"></rect><rect class="cls-10" x="161.78" y="197.51" width="1.34" height="26.87"></rect><rect class="cls-10" x="167.16" y="197.51" width="1.34" height="26.87"></rect><rect class="cls-10" x="172.53" y="197.51" width="1.34" height="26.87"></rect><rect class="cls-10" x="177.9" y="197.51" width="1.34" height="26.87"></rect><rect class="cls-10" x="183.28" y="197.51" width="1.34" height="26.87"></rect><rect class="cls-10" x="188.65" y="197.51" width="1.34" height="26.87"></rect><rect class="cls-10" x="194.03" y="197.51" width="1.34" height="26.87"></rect><rect class="cls-10" x="329.06" y="145.11" width="5.37" height="83.31"></rect><rect class="cls-9" x="329.06" y="145.11" width="5.37" height="10.75"></rect><rect class="cls-10" x="259.19" y="145.11" width="5.37" height="83.31"></rect><rect class="cls-9" x="259.19" y="145.11" width="5.37" height="10.75"></rect><rect class="cls-10" x="261.88" y="223.04" width="69.87" height="2.69"></rect><rect class="cls-10" x="261.88" y="196.17" width="69.87" height="2.69"></rect><rect class="cls-10" x="269.27" y="197.51" width="1.34" height="26.87"></rect><rect class="cls-10" x="274.65" y="197.51" width="1.34" height="26.87"></rect><rect class="cls-10" x="280.02" y="197.51" width="1.34" height="26.87"></rect><rect class="cls-10" x="285.4" y="197.51" width="1.34" height="26.87"></rect><rect class="cls-10" x="290.77" y="197.51" width="1.34" height="26.87"></rect><rect class="cls-10" x="296.14" y="197.51" width="1.34" height="26.87"></rect><rect class="cls-10" x="301.52" y="197.51" width="1.34" height="26.87"></rect><rect class="cls-10" x="306.89" y="197.51" width="1.34" height="26.87"></rect><rect class="cls-10" x="312.27" y="197.51" width="1.34" height="26.87"></rect><rect class="cls-10" x="317.64" y="197.51" width="1.34" height="26.87"></rect><rect class="cls-10" x="323.02" y="197.51" width="1.34" height="26.87"></rect></g></g></g></svg> 